<svg width="407" height="370" viewBox="0 0 407 370" fill="none" xmlns="http://www.w3.org/2000/svg">
<path d="M232.242 100.913V110.936L289.265 94.3472L232.242 100.913Z" fill="#FAFAFA"/>
<path d="M158.629 261.375L106.695 369.097C112.426 334.854 104.307 251.15 99.532 213.578L158.629 261.375Z" fill="#FAFAFA"/>
<path d="M89.9928 220.836L-0.000419617 266.455L96.4209 248.495L89.9928 220.836Z" fill="#B8D7F3"/>
<path d="M160.703 150.015L87.5774 166.923L49.7663 0L150.358 99.2904L160.703 150.015Z" fill="#FAFAFA"/>
<path d="M406.421 179.705L172.107 246.756L218.255 157.592L406.421 179.705Z" fill="#B8D7F3"/>
<path d="M88.1278 190.953L159.305 249.867L231.205 111.181V100.569H211.333L168.699 142.651V159.849L88.1278 174.852V190.953Z" fill="#84DCCF"/>
</svg>
